Coordinates
version=1
nRows=16
nColumns=42
inDegrees=yes

Units are S.I. units (second, meters, Newtons, ...)
If the header above contains a line with 'inDegrees', this indicates whether rotational values are in degrees (yes) or radians (no).

endheader
time	pelvis_tilt	pelvis_list	pelvis_rotation	pelvis_tx	pelvis_ty	pelvis_tz	hip_flexion_r	hip_adduction_r	hip_rotation_r	knee_angle_r	knee_adduction_r	knee_angle_r_beta	ankle_angle_r	subtalar_angle_r	mtp_angle_r	hip_flexion_l	hip_adduction_l	hip_rotation_l	knee_angle_l	knee_adduction_l	knee_angle_l_beta	ankle_angle_l	subtalar_angle_l	mtp_angle_l	lumbar_extension	lumbar_bending	lumbar_rotation	arm_flex_r	arm_add_r	arm_rot_r	elbow_flex_r	pro_sup_r	wrist_flex_r	wrist_dev_r	arm_flex_l	arm_add_l	arm_rot_l	elbow_flex_l	pro_sup_l	wrist_flex_l	wrist_dev_l
      1.62000000	      9.70930426	     -3.79450857	     -2.31766486	      0.72825606	      0.87721641	     -0.23908344	      0.02850502	      8.50174840	      1.92711001	     28.33615133	     -2.64921560	      0.49455914	     19.78473471	      1.34041712	     -7.50519248	     -3.93743636	     -9.48046779	    -16.79770852	     68.45244849	     -9.26492724	      1.19472061	      1.10123514	    -14.37023077	     -7.50519248	    -22.09671920	      1.65451589	     -3.56333501	     -0.74109532	     -1.30349142	    -24.48674250	     35.55789281	     90.00000001	      0.00000000	      0.00000000	     -0.99329642	     -5.29612809	    -14.44910663	     43.64716909	     90.00000001	      0.00000000	      0.00000000
      1.63000000	      9.71350260	     -3.25592963	     -2.18955090	      0.73899446	      0.87886529	     -0.23790687	     -1.50788590	      8.03585938	      2.56433985	     26.73333323	     -2.68569765	      0.46658468	     20.14411455	      1.79350285	     -7.50509459	     -1.98318187	     -8.76216727	    -16.51807565	     69.41092728	     -9.81493087	      1.21144922	      3.15390409	    -14.42086869	     -7.50509459	    -22.09431049	      1.05439838	     -3.35345868	     -0.88156605	     -1.23597254	    -23.73154389	     36.72552451	     90.00000001	      0.00000000	      0.00000000	     -0.92174122	     -5.28693367	    -14.46106912	     43.19920843	     90.00000001	      0.00000000	      0.00000000
      1.64000000	      9.86720957	     -2.76873884	     -2.35094166	      0.74953510	      0.88054542	     -0.23629398	     -3.01447804	      7.60802670	      2.92336973	     25.56386045	     -2.82268139	      0.44617353	     20.29542702	      2.07427646	     -7.50499664	     -0.34018563	     -8.21863709	    -16.27872759	     70.04406835	     -9.81375950	      1.22249961	      4.61152150	    -13.89158490	     -7.50499664	    -22.27868740	      0.39485266	     -2.79415002	     -0.94492368	     -1.24994301	    -22.93159886	     37.69996980	     90.00000001	      0.00000000	      0.00000000	     -0.83496791	     -5.26326725	    -14.51527873	     42.97132264	     90.00000001	      0.00000000	      0.00000000
      1.65000000	     10.00168367	     -2.30188124	     -2.50508675	      0.76008416	      0.88202617	     -0.23484142	     -4.52507841	      7.15216887	      3.30813677	     24.31102329	     -2.90835584	      0.42430740	     20.42232371	      2.36511622	     -7.50489413	      1.26224305	     -7.67892378	    -16.02055358	     70.36311972	     -9.68382055	      1.22806811	      6.17057082	    -13.26463470	     -7.50489413	    -22.43270776	     -0.21231415	     -2.25609570	     -1.04013131	     -1.30349639	    -22.05576255	     38.76398731	     90.00000001	      0.00000000	      0.00000000	     -0.80659950	     -5.21992495	    -14.59995447	     42.77099291	     90.00000001	      0.00000000	      0.00000000
      1.66000000	     10.11963461	     -1.87862602	     -2.69524557	      0.77059088	      0.88327366	     -0.23335414	     -5.98871096	      6.74582293	      3.59854165	     23.11782674	     -3.01464278	      0.40348219	     20.50477860	      2.62256805	     -7.50479430	      2.83270792	     -7.20642416	    -15.77446471	     70.42883748	     -9.41896776	      1.22921510	      7.58520301	    -12.64099453	     -7.50479430	    -22.54764274	     -0.77644217	     -1.68332112	     -1.10179868	     -1.37872478	    -21.22655957	     39.79068501	     90.00000001	      0.00000000	      0.00000000	     -0.79928082	     -5.16662788	    -14.70978051	     42.63805780	     90.00000001	      0.00000000	      0.00000000
      1.67000000	     10.60936824	     -1.56774446	     -2.89560870	      0.78148317	      0.88480693	     -0.23180715	     -8.12909130	      6.43676943	      4.42656374	     21.43701063	     -3.04900565	      0.37414642	     20.36968279	      2.55048110	     -7.50457295	      3.80383170	     -6.88878519	    -15.43908959	     70.06048304	     -8.86417950	      1.22278610	      9.06925714	    -11.63506591	     -7.50457295	    -23.04185035	     -1.25904004	     -1.05841904	     -1.39982390	     -1.75993162	    -19.49656430	     41.05384186	     90.00000001	      0.00000000	      0.00000000	     -0.81715519	     -5.12966273	    -15.00905831	     42.52067227	     90.00000001	      0.00000000	      0.00000000
      1.68000000	     10.61842801	     -1.26442053	     -3.07429927	      0.79198378	      0.88552754	     -0.23042406	     -9.54675612	      6.15241083	      4.86499741	     20.06187945	     -3.14302951	      0.35014585	     20.33076420	      2.53394854	     -7.50437094	      5.37353969	     -6.54009618	    -15.08139851	     69.57582426	     -8.36040843	      1.21432721	     10.24214149	    -11.43262147	     -7.50437094	    -23.02695481	     -1.66268752	     -0.50883219	     -1.44832744	     -1.87637067	    -18.84381303	     42.09291755	     90.00000001	      0.00000000	      0.00000000	     -0.87406238	     -5.05603787	    -15.18982403	     42.41087596	     90.00000001	      0.00000000	      0.00000000
      1.69000000	     10.35967699	     -1.01294368	     -3.23472350	      0.80228245	      0.88558877	     -0.22912541	    -10.37757773	      5.92766505	      4.54073086	     19.26323415	     -3.34362034	      0.33620686	     20.35427113	      2.72136400	     -7.50429985	      7.26749690	     -6.27940126	    -14.94040432	     68.94156337	     -8.00989642	      1.20325727	     11.06185452	    -11.39194885	     -7.50429985	    -22.72814791	     -1.97052290	      0.02508151	     -1.33467915	     -1.92297936	    -18.65752859	     42.82756742	     90.00000001	      0.00000000	      0.00000000	     -1.02473687	     -5.00738172	    -15.25679149	     42.42016169	     90.00000001	      0.00000000	      0.00000000
      1.70000000	     10.51668700	     -0.73936174	     -3.29851482	      0.81304824	      0.88604211	     -0.22811857	    -12.12643660	      5.60137393	      4.94038836	     17.51021045	     -3.38578671	      0.30561082	     20.40368419	      3.43687705	     -7.50414233	      8.47355767	     -5.88672842	    -14.05505237	     67.85191419	     -6.93274816	      1.18423931	     11.96105929	    -11.86309113	     -7.50414233	    -22.85006542	     -2.27468833	      0.45578594	     -1.46856846	     -2.13971149	    -17.91422022	     44.06574963	     90.00000001	      0.00000000	      0.00000000	     -1.09659124	     -4.90122324	    -15.53894148	     42.22989996	     90.00000001	      0.00000000	      0.00000000
      1.71000000	     10.48810994	     -0.53507096	     -3.34723109	      0.82364990	      0.88603810	     -0.22709278	    -13.49590965	      5.39825260	      4.93000724	     16.12824619	     -3.51950638	      0.28149100	     20.34895993	      3.89540055	     -7.50398409	      9.86295172	     -5.58362564	    -13.44429985	     66.52730635	     -6.08759617	      1.16112054	     12.46599105	    -12.41705168	     -7.50398409	    -22.78459053	     -2.48625210	      0.83532842	     -1.45332848	     -2.31338548	    -17.38605685	     45.01303160	     90.00000001	      0.00000000	      0.00000000	     -1.26286383	     -4.83728323	    -15.75606089	     42.18184735	     90.00000001	      0.00000000	      0.00000000
      1.72000000	     10.29581726	     -0.39882836	     -3.34503696	      0.83418758	      0.88557837	     -0.22613907	    -14.61230479	      5.28879739	      4.70757494	     14.89010586	     -3.66169237	      0.25988137	     20.33370423	      4.54627784	     -7.50388030	     11.39402955	     -5.33772939	    -12.92852266	     64.98484365	     -5.35526552	      1.13419949	     12.99612086	    -12.84788003	     -7.50388030	    -22.54965492	     -2.58813051	      1.16223660	     -1.40263228	     -2.44376770	    -17.06986126	     45.93759914	     90.00000001	      0.00000000	      0.00000000	     -1.45264088	     -4.78387297	    -15.91716377	     42.09014064	     90.00000001	      0.00000000	      0.00000000
      1.73000000	     10.43284221	     -0.25125416	     -3.35751163	      0.84494853	      0.88540878	     -0.22525019	    -16.19387386	      5.10590928	      4.42102393	     13.43819919	     -3.74771020	      0.23454082	     20.23770343	      5.40748114	     -7.50373430	     12.34010037	     -5.06070768	    -12.16877143	     62.99721359	     -4.21435926	      1.09950880	     13.00141951	    -13.53486040	     -7.50373430	    -22.65946787	     -2.71873223	      1.46228500	     -1.31925980	     -2.64791287	    -16.55638910	     46.74446071	     90.00000001	      0.00000000	      0.00000000	     -1.65104806	     -4.71181299	    -16.17955795	     42.07646659	     90.00000001	      0.00000000	      0.00000000
      1.74000000	     10.26526632	     -0.17894280	     -3.28136981	      0.85559960	      0.88460560	     -0.22442524	    -17.35098299	      5.07771093	      3.96838099	     12.17467285	     -3.87245701	      0.21248813	     20.17753711	      6.28284735	     -7.50363667	     13.61457332	     -4.84761744	    -11.66242656	     60.85557405	     -3.38982171	      1.06213014	     13.26527459	    -13.84019156	     -7.50363667	    -22.45596065	     -2.71671687	      1.66752686	     -1.23283581	     -2.78494009	    -16.26966367	     47.59968739	     90.00000001	      0.00000000	      0.00000000	     -1.86808281	     -4.67406642	    -16.36225617	     41.93433663	     90.00000001	      0.00000000	      0.00000000
      1.75000000	     10.33600987	     -0.11740922	     -3.22105284	      0.86636409	      0.88398164	     -0.22363065	    -18.79785461	      5.01982810	      3.44129347	     10.85601029	     -3.94183255	      0.18947312	     20.06883473	      7.36290057	     -7.50353620	     14.41525925	     -4.62675495	    -11.05534985	     58.29427707	     -2.34031428	      1.01742707	     13.20958739	    -14.10954254	     -7.50353620	    -22.51221011	     -2.71812869	      1.85199625	     -1.08560510	     -2.94602165	    -15.90177869	     48.32550830	     90.00000001	      0.00000000	      0.00000000	     -2.08254085	     -4.61591717	    -16.61234237	     41.84468971	     90.00000001	      0.00000000	      0.00000000
      1.76000000	     10.48164648	      0.08947434	     -3.18574891	      0.87719824	      0.88332412	     -0.22302690	    -20.24380546	      4.71219178	      2.76763766	      9.70934938	     -3.80369027	      0.16946011	     20.03540654	      8.35044413	     -7.50337710	     14.96753863	     -4.17948070	    -10.70697350	     55.33418639	     -1.42823303	      0.96576374	     12.90791243	    -14.48654527	     -7.50337710	    -22.64937986	     -2.86460270	      1.92654658	     -0.85941399	     -3.10523181	    -15.50323241	     48.91072251	     90.00000001	      0.00000000	      0.00000000	     -2.37646601	     -4.55437486	    -16.92525960	     41.90361047	     90.00000001	      0.00000000	      0.00000000
      1.77000000	     10.43183979	      0.02702953	     -3.08100564	      0.88790579	      0.88223928	     -0.22223926	    -21.42038026	      4.81248974	      2.10100146	      8.70888304	     -3.82346424	      0.15199868	     19.95588852	      9.39069026	     -7.50327644	     15.65786172	     -4.10084519	    -10.34249962	     52.25315902	     -0.46499817	      0.91198967	     12.81211349	    -14.17674714	     -7.50327644	    -22.59785506	     -2.71273147	      2.05956186	     -0.67724696	     -3.23758440	    -15.25526838	     49.53434066	     90.00000001	      0.00000000	      0.00000000	     -2.56142777	     -4.51399272	    -17.14699651	     41.65162336	     90.00000001	      0.00000000	      0.00000000
